<?xml version="1.0" encoding="UTF-8"?>
<!DOCTYPE svg PUBLIC "-//W3C//DTD SVG 1.1//EN" "http://www.w3.org/Graphics/SVG/1.1/DTD/svg11.dtd">
<svg width="204mm" height="101mm" viewBox="0 0 20400 10100" version="1.1" xmlns="http://www.w3.org/2000/svg" stroke-width="28.222" stroke-linejoin="round" xml:space="preserve">
 <path fill="rgb(255,255,255)" stroke="none" d="M 10220,10135 L 0,10135 0,0 20440,0 20440,10135 10220,10135 Z"/>
 <path fill="none" stroke="rgb(179,179,179)" stroke-linejoin="round" d="M 11089,9734 L 2146,9734 2146,1518 20032,1518 20032,9734 11089,9734 Z"/>
 <path fill="none" stroke="rgb(179,179,179)" stroke-linejoin="round" d="M 20032,9733 L 2146,9733"/>
 <path fill="none" stroke="rgb(179,179,179)" stroke-linejoin="round" d="M 20032,8559 L 2146,8559"/>
 <path fill="none" stroke="rgb(179,179,179)" stroke-linejoin="round" d="M 20032,7385 L 2146,7385"/>
 <path fill="none" stroke="rgb(179,179,179)" stroke-linejoin="round" d="M 20032,6211 L 2146,6211"/>
 <path fill="none" stroke="rgb(179,179,179)" stroke-linejoin="round" d="M 20032,5038 L 2146,5038"/>
 <path fill="none" stroke="rgb(179,179,179)" stroke-linejoin="round" d="M 20032,3864 L 2146,3864"/>
 <path fill="none" stroke="rgb(179,179,179)" stroke-linejoin="round" d="M 20032,2690 L 2146,2690"/>
 <path fill="none" stroke="rgb(179,179,179)" stroke-linejoin="round" d="M 20032,1516 L 2146,1516"/>
 <path fill="none" stroke="rgb(179,179,179)" stroke-linejoin="round" d="M 2146,4014 L 2146,3864"/>
 <path fill="none" stroke="rgb(179,179,179)" stroke-linejoin="round" d="M 2146,4014 L 2146,3864"/>
 <path fill="none" stroke="rgb(179,179,179)" stroke-linejoin="round" d="M 4133,4014 L 4133,3864"/>
 <path fill="none" stroke="rgb(179,179,179)" stroke-linejoin="round" d="M 4133,4014 L 4133,3864"/>
 <path fill="none" stroke="rgb(179,179,179)" stroke-linejoin="round" d="M 6120,4014 L 6120,3864"/>
 <path fill="none" stroke="rgb(179,179,179)" stroke-linejoin="round" d="M 6120,4014 L 6120,3864"/>
 <path fill="none" stroke="rgb(179,179,179)" stroke-linejoin="round" d="M 8108,4014 L 8108,3864"/>
 <path fill="none" stroke="rgb(179,179,179)" stroke-linejoin="round" d="M 8108,4014 L 8108,3864"/>
 <path fill="none" stroke="rgb(179,179,179)" stroke-linejoin="round" d="M 10095,4014 L 10095,3864"/>
 <path fill="none" stroke="rgb(179,179,179)" stroke-linejoin="round" d="M 10095,4014 L 10095,3864"/>
 <path fill="none" stroke="rgb(179,179,179)" stroke-linejoin="round" d="M 12082,4014 L 12082,3864"/>
 <path fill="none" stroke="rgb(179,179,179)" stroke-linejoin="round" d="M 12082,4014 L 12082,3864"/>
 <path fill="none" stroke="rgb(179,179,179)" stroke-linejoin="round" d="M 14069,4014 L 14069,3864"/>
 <path fill="none" stroke="rgb(179,179,179)" stroke-linejoin="round" d="M 14069,4014 L 14069,3864"/>
 <path fill="none" stroke="rgb(179,179,179)" stroke-linejoin="round" d="M 16057,4014 L 16057,3864"/>
 <path fill="none" stroke="rgb(179,179,179)" stroke-linejoin="round" d="M 16057,4014 L 16057,3864"/>
 <path fill="none" stroke="rgb(179,179,179)" stroke-linejoin="round" d="M 18044,4014 L 18044,3864"/>
 <path fill="none" stroke="rgb(179,179,179)" stroke-linejoin="round" d="M 18044,4014 L 18044,3864"/>
 <path fill="none" stroke="rgb(179,179,179)" stroke-linejoin="round" d="M 20032,4014 L 20032,3864"/>
 <path fill="none" stroke="rgb(179,179,179)" stroke-linejoin="round" d="M 20032,4014 L 20032,3864"/>
 <path fill="none" stroke="rgb(179,179,179)" stroke-linejoin="round" d="M 2146,3864 L 20032,3864"/>
 <path fill="none" stroke="rgb(179,179,179)" stroke-linejoin="round" d="M 1996,9733 L 2146,9733"/>
 <path fill="none" stroke="rgb(179,179,179)" stroke-linejoin="round" d="M 1996,9733 L 2146,9733"/>
 <path fill="none" stroke="rgb(179,179,179)" stroke-linejoin="round" d="M 1996,8559 L 2146,8559"/>
 <path fill="none" stroke="rgb(179,179,179)" stroke-linejoin="round" d="M 1996,8559 L 2146,8559"/>
 <path fill="none" stroke="rgb(179,179,179)" stroke-linejoin="round" d="M 1996,7385 L 2146,7385"/>
 <path fill="none" stroke="rgb(179,179,179)" stroke-linejoin="round" d="M 1996,7385 L 2146,7385"/>
 <path fill="none" stroke="rgb(179,179,179)" stroke-linejoin="round" d="M 1996,6211 L 2146,6211"/>
 <path fill="none" stroke="rgb(179,179,179)" stroke-linejoin="round" d="M 1996,6211 L 2146,6211"/>
 <path fill="none" stroke="rgb(179,179,179)" stroke-linejoin="round" d="M 1996,5038 L 2146,5038"/>
 <path fill="none" stroke="rgb(179,179,179)" stroke-linejoin="round" d="M 1996,5038 L 2146,5038"/>
 <path fill="none" stroke="rgb(179,179,179)" stroke-linejoin="round" d="M 1996,3864 L 2146,3864"/>
 <path fill="none" stroke="rgb(179,179,179)" stroke-linejoin="round" d="M 1996,3864 L 2146,3864"/>
 <path fill="none" stroke="rgb(179,179,179)" stroke-linejoin="round" d="M 1996,2690 L 2146,2690"/>
 <path fill="none" stroke="rgb(179,179,179)" stroke-linejoin="round" d="M 1996,2690 L 2146,2690"/>
 <path fill="none" stroke="rgb(179,179,179)" stroke-linejoin="round" d="M 1996,1517 L 2146,1517"/>
 <path fill="none" stroke="rgb(179,179,179)" stroke-linejoin="round" d="M 1996,1517 L 2146,1517"/>
 <path fill="none" stroke="rgb(179,179,179)" stroke-linejoin="round" d="M 2146,9733 L 2146,1516"/>
 <path fill="rgb(52,101,164)" stroke="none" d="M 18541,5514 L 19535,5514 19535,3864 18541,3864 18541,5514 Z"/>
 <path fill="rgb(52,101,164)" stroke="none" d="M 16553,8106 L 17547,8106 17547,3864 16553,3864 16553,8106 Z"/>
 <path fill="rgb(52,101,164)" stroke="none" d="M 14566,6011 L 15560,6011 15560,3864 14566,3864 14566,6011 Z"/>
 <path fill="rgb(52,101,164)" stroke="none" d="M 12579,8498 L 13572,8498 13572,3864 12579,3864 12579,8498 Z"/>
 <path fill="rgb(52,101,164)" stroke="none" d="M 10591,4540 L 11585,4540 11585,3864 10591,3864 10591,4540 Z"/>
 <path fill="rgb(52,101,164)" stroke="none" d="M 8605,3864 L 9598,3864 9598,2575 8605,2575 8605,3864 Z"/>
 <path fill="rgb(52,101,164)" stroke="none" d="M 6617,3864 L 7611,3864 7611,3827 6617,3827 6617,3864 Z"/>
 <path fill="rgb(52,101,164)" stroke="none" d="M 4630,4803 L 5624,4803 5624,3864 4630,3864 4630,4803 Z"/>
 <path fill="rgb(52,101,164)" stroke="none" d="M 2642,3864 L 3636,3864 3636,2946 2642,2946 2642,3864 Z"/>
 <path fill="none" stroke="rgb(52,101,164)" stroke-linejoin="round" d="M 3139,3171 L 19038,7234"/>
 <text class="TextShape"><tspan class="TextParagraph" font-family="Liberation Sans" font-size="353px" font-weight="400"><tspan class="TextPosition" x="2768" y="4432"><tspan fill="rgb(0,0,0)" stroke="none">1865</tspan></tspan></tspan></text>
 <text class="TextShape"><tspan class="TextParagraph" font-family="Liberation Sans" font-size="353px" font-weight="400"><tspan class="TextPosition" x="4756" y="4432"><tspan fill="rgb(0,0,0)" stroke="none">1885</tspan></tspan></tspan></text>
 <text class="TextShape"><tspan class="TextParagraph" font-family="Liberation Sans" font-size="353px" font-weight="400"><tspan class="TextPosition" x="6743" y="4432"><tspan fill="rgb(0,0,0)" stroke="none">1893</tspan></tspan></tspan></text>
 <text class="TextShape"><tspan class="TextParagraph" font-family="Liberation Sans" font-size="353px" font-weight="400"><tspan class="TextPosition" x="8731" y="4432"><tspan fill="rgb(0,0,0)" stroke="none">1913</tspan></tspan></tspan></text>
 <text class="TextShape"><tspan class="TextParagraph" font-family="Liberation Sans" font-size="353px" font-weight="400"><tspan class="TextPosition" x="10718" y="4432"><tspan fill="rgb(0,0,0)" stroke="none">1933</tspan></tspan></tspan></text>
 <text class="TextShape"><tspan class="TextParagraph" font-family="Liberation Sans" font-size="353px" font-weight="400"><tspan class="TextPosition" x="12705" y="4432"><tspan fill="rgb(0,0,0)" stroke="none">1961</tspan></tspan></tspan></text>
 <text class="TextShape"><tspan class="TextParagraph" font-family="Liberation Sans" font-size="353px" font-weight="400"><tspan class="TextPosition" x="14693" y="4432"><tspan fill="rgb(0,0,0)" stroke="none">1977</tspan></tspan></tspan></text>
 <text class="TextShape"><tspan class="TextParagraph" font-family="Liberation Sans" font-size="353px" font-weight="400"><tspan class="TextPosition" x="16680" y="4432"><tspan fill="rgb(0,0,0)" stroke="none">1993</tspan></tspan></tspan></text>
 <text class="TextShape"><tspan class="TextParagraph" font-family="Liberation Sans" font-size="353px" font-weight="400"><tspan class="TextPosition" x="18668" y="4432"><tspan fill="rgb(0,0,0)" stroke="none">2009</tspan></tspan></tspan></text>
 <text class="TextShape"><tspan class="TextParagraph" font-family="Liberation Sans" font-size="353px" font-weight="400"><tspan class="TextPosition" x="1420" y="9854"><tspan fill="rgb(0,0,0)" stroke="none">-25</tspan></tspan></tspan></text>
 <text class="TextShape"><tspan class="TextParagraph" font-family="Liberation Sans" font-size="353px" font-weight="400"><tspan class="TextPosition" x="1420" y="8680"><tspan fill="rgb(0,0,0)" stroke="none">-20</tspan></tspan></tspan></text>
 <text class="TextShape"><tspan class="TextParagraph" font-family="Liberation Sans" font-size="353px" font-weight="400"><tspan class="TextPosition" x="1420" y="7506"><tspan fill="rgb(0,0,0)" stroke="none">-15</tspan></tspan></tspan></text>
 <text class="TextShape"><tspan class="TextParagraph" font-family="Liberation Sans" font-size="353px" font-weight="400"><tspan class="TextPosition" x="1420" y="6332"><tspan fill="rgb(0,0,0)" stroke="none">-10</tspan></tspan></tspan></text>
 <text class="TextShape"><tspan class="TextParagraph" font-family="Liberation Sans" font-size="353px" font-weight="400"><tspan class="TextPosition" x="1605" y="5158"><tspan fill="rgb(0,0,0)" stroke="none">-5</tspan></tspan></tspan></text>
 <text class="TextShape"><tspan class="TextParagraph" font-family="Liberation Sans" font-size="353px" font-weight="400"><tspan class="TextPosition" x="1711" y="3984"><tspan fill="rgb(0,0,0)" stroke="none">0</tspan></tspan></tspan></text>
 <text class="TextShape"><tspan class="TextParagraph" font-family="Liberation Sans" font-size="353px" font-weight="400"><tspan class="TextPosition" x="1711" y="2810"><tspan fill="rgb(0,0,0)" stroke="none">5</tspan></tspan></tspan></text>
 <text class="TextShape"><tspan class="TextParagraph" font-family="Liberation Sans" font-size="353px" font-weight="400"><tspan class="TextPosition" x="1526" y="1637"><tspan fill="rgb(0,0,0)" stroke="none">10</tspan></tspan></tspan></text>
 <text class="TextShape"><tspan class="TextParagraph" font-family="Liberation Sans" font-size="459px" font-weight="400"><tspan class="TextPosition" x="6635" y="873"><tspan fill="rgb(0,0,0)" stroke="none">Democrats Succeeding Republicans</tspan></tspan></tspan></text>
 <text class="TextShape" transform="translate(837,7808) rotate(-90) translate(-837,-7808)"><tspan class="TextParagraph" font-family="Liberation Sans" font-size="318px" font-weight="400"><tspan class="TextPosition" x="837" y="7808"><tspan fill="rgb(0,0,0)" stroke="none">Age Difference at Inauguration</tspan></tspan></tspan></text>
</svg>