<?xml version="1.0" encoding="UTF-8"?>
<!DOCTYPE svg PUBLIC "-//W3C//DTD SVG 1.1//EN" "http://www.w3.org/Graphics/SVG/1.1/DTD/svg11.dtd">
<svg width="221mm" height="100mm" viewBox="0 0 22100 10000" version="1.1" xmlns="http://www.w3.org/2000/svg" stroke-width="28.222" stroke-linejoin="round" xml:space="preserve">
 <path fill="rgb(255,255,255)" stroke="none" d="M 11046,10043 L 0,10043 0,0 22091,0 22091,10043 11046,10043 Z"/>
 <path fill="none" stroke="rgb(179,179,179)" stroke-linejoin="round" d="M 11924,9648 L 2198,9648 2198,1536 21650,1536 21650,9648 11924,9648 Z"/>
 <path fill="none" stroke="rgb(179,179,179)" stroke-linejoin="round" d="M 21650,9647 L 2198,9647"/>
 <path fill="none" stroke="rgb(179,179,179)" stroke-linejoin="round" d="M 21650,8488 L 2198,8488"/>
 <path fill="none" stroke="rgb(179,179,179)" stroke-linejoin="round" d="M 21650,7329 L 2198,7329"/>
 <path fill="none" stroke="rgb(179,179,179)" stroke-linejoin="round" d="M 21650,6170 L 2198,6170"/>
 <path fill="none" stroke="rgb(179,179,179)" stroke-linejoin="round" d="M 21650,5012 L 2198,5012"/>
 <path fill="none" stroke="rgb(179,179,179)" stroke-linejoin="round" d="M 21650,3853 L 2198,3853"/>
 <path fill="none" stroke="rgb(179,179,179)" stroke-linejoin="round" d="M 21650,2694 L 2198,2694"/>
 <path fill="none" stroke="rgb(179,179,179)" stroke-linejoin="round" d="M 21650,1535 L 2198,1535"/>
 <path fill="none" stroke="rgb(179,179,179)" stroke-linejoin="round" d="M 2198,4003 L 2198,3853"/>
 <path fill="none" stroke="rgb(179,179,179)" stroke-linejoin="round" d="M 2198,4003 L 2198,3853"/>
 <path fill="none" stroke="rgb(179,179,179)" stroke-linejoin="round" d="M 4359,4003 L 4359,3853"/>
 <path fill="none" stroke="rgb(179,179,179)" stroke-linejoin="round" d="M 4359,4003 L 4359,3853"/>
 <path fill="none" stroke="rgb(179,179,179)" stroke-linejoin="round" d="M 6520,4003 L 6520,3853"/>
 <path fill="none" stroke="rgb(179,179,179)" stroke-linejoin="round" d="M 6520,4003 L 6520,3853"/>
 <path fill="none" stroke="rgb(179,179,179)" stroke-linejoin="round" d="M 8682,4003 L 8682,3853"/>
 <path fill="none" stroke="rgb(179,179,179)" stroke-linejoin="round" d="M 8682,4003 L 8682,3853"/>
 <path fill="none" stroke="rgb(179,179,179)" stroke-linejoin="round" d="M 10843,4003 L 10843,3853"/>
 <path fill="none" stroke="rgb(179,179,179)" stroke-linejoin="round" d="M 10843,4003 L 10843,3853"/>
 <path fill="none" stroke="rgb(179,179,179)" stroke-linejoin="round" d="M 13004,4003 L 13004,3853"/>
 <path fill="none" stroke="rgb(179,179,179)" stroke-linejoin="round" d="M 13004,4003 L 13004,3853"/>
 <path fill="none" stroke="rgb(179,179,179)" stroke-linejoin="round" d="M 15165,4003 L 15165,3853"/>
 <path fill="none" stroke="rgb(179,179,179)" stroke-linejoin="round" d="M 15165,4003 L 15165,3853"/>
 <path fill="none" stroke="rgb(179,179,179)" stroke-linejoin="round" d="M 17327,4003 L 17327,3853"/>
 <path fill="none" stroke="rgb(179,179,179)" stroke-linejoin="round" d="M 17327,4003 L 17327,3853"/>
 <path fill="none" stroke="rgb(179,179,179)" stroke-linejoin="round" d="M 19488,4003 L 19488,3853"/>
 <path fill="none" stroke="rgb(179,179,179)" stroke-linejoin="round" d="M 19488,4003 L 19488,3853"/>
 <path fill="none" stroke="rgb(179,179,179)" stroke-linejoin="round" d="M 21650,4003 L 21650,3853"/>
 <path fill="none" stroke="rgb(179,179,179)" stroke-linejoin="round" d="M 21650,4003 L 21650,3853"/>
 <path fill="none" stroke="rgb(179,179,179)" stroke-linejoin="round" d="M 2198,3853 L 21650,3853"/>
 <path fill="none" stroke="rgb(179,179,179)" stroke-linejoin="round" d="M 2048,9647 L 2198,9647"/>
 <path fill="none" stroke="rgb(179,179,179)" stroke-linejoin="round" d="M 2048,9647 L 2198,9647"/>
 <path fill="none" stroke="rgb(179,179,179)" stroke-linejoin="round" d="M 2048,8488 L 2198,8488"/>
 <path fill="none" stroke="rgb(179,179,179)" stroke-linejoin="round" d="M 2048,8488 L 2198,8488"/>
 <path fill="none" stroke="rgb(179,179,179)" stroke-linejoin="round" d="M 2048,7329 L 2198,7329"/>
 <path fill="none" stroke="rgb(179,179,179)" stroke-linejoin="round" d="M 2048,7329 L 2198,7329"/>
 <path fill="none" stroke="rgb(179,179,179)" stroke-linejoin="round" d="M 2048,6170 L 2198,6170"/>
 <path fill="none" stroke="rgb(179,179,179)" stroke-linejoin="round" d="M 2048,6170 L 2198,6170"/>
 <path fill="none" stroke="rgb(179,179,179)" stroke-linejoin="round" d="M 2048,5012 L 2198,5012"/>
 <path fill="none" stroke="rgb(179,179,179)" stroke-linejoin="round" d="M 2048,5012 L 2198,5012"/>
 <path fill="none" stroke="rgb(179,179,179)" stroke-linejoin="round" d="M 2048,3853 L 2198,3853"/>
 <path fill="none" stroke="rgb(179,179,179)" stroke-linejoin="round" d="M 2048,3853 L 2198,3853"/>
 <path fill="none" stroke="rgb(179,179,179)" stroke-linejoin="round" d="M 2048,2694 L 2198,2694"/>
 <path fill="none" stroke="rgb(179,179,179)" stroke-linejoin="round" d="M 2048,2694 L 2198,2694"/>
 <path fill="none" stroke="rgb(179,179,179)" stroke-linejoin="round" d="M 2048,1535 L 2198,1535"/>
 <path fill="none" stroke="rgb(179,179,179)" stroke-linejoin="round" d="M 2048,1535 L 2198,1535"/>
 <path fill="none" stroke="rgb(179,179,179)" stroke-linejoin="round" d="M 2198,9647 L 2198,1535"/>
 <path fill="rgb(52,101,164)" stroke="none" d="M 20028,5481 L 21109,5481 21109,3853 20028,3853 20028,5481 Z"/>
 <path fill="rgb(52,101,164)" stroke="none" d="M 17867,9227 L 18948,9227 18948,3853 17867,3853 17867,9227 Z"/>
 <path fill="rgb(52,101,164)" stroke="none" d="M 15706,4780 L 16786,4780 16786,3853 15706,3853 15706,4780 Z"/>
 <path fill="rgb(52,101,164)" stroke="none" d="M 13544,8427 L 14625,8427 14625,3853 13544,3853 13544,8427 Z"/>
 <path fill="rgb(52,101,164)" stroke="none" d="M 11383,4731 L 12463,4731 12463,3853 11383,3853 11383,4731 Z"/>
 <path fill="rgb(52,101,164)" stroke="none" d="M 9222,3853 L 10303,3853 10303,3315 9222,3315 9222,3853 Z"/>
 <path fill="rgb(52,101,164)" stroke="none" d="M 7061,3853 L 8141,3853 8141,3815 7061,3815 7061,3853 Z"/>
 <path fill="rgb(52,101,164)" stroke="none" d="M 4899,3853 L 5980,3853 5980,3611 4899,3611 4899,3853 Z"/>
 <path fill="rgb(52,101,164)" stroke="none" d="M 2738,3853 L 3819,3853 3819,2946 2738,2946 2738,3853 Z"/>
 <text class="TextShape"><tspan class="TextParagraph" font-family="Liberation Sans, sans-serif" font-size="353px" font-weight="400"><tspan class="TextPosition" x="2890" y="4421"><tspan fill="rgb(0,0,0)" stroke="none">1865</tspan></tspan></tspan></text>
 <text class="TextShape"><tspan class="TextParagraph" font-family="Liberation Sans, sans-serif" font-size="353px" font-weight="400"><tspan class="TextPosition" x="5052" y="4421"><tspan fill="rgb(0,0,0)" stroke="none">1885</tspan></tspan></tspan></text>
 <text class="TextShape"><tspan class="TextParagraph" font-family="Liberation Sans, sans-serif" font-size="353px" font-weight="400"><tspan class="TextPosition" x="7213" y="4421"><tspan fill="rgb(0,0,0)" stroke="none">1893</tspan></tspan></tspan></text>
 <text class="TextShape"><tspan class="TextParagraph" font-family="Liberation Sans, sans-serif" font-size="353px" font-weight="400"><tspan class="TextPosition" x="9375" y="4421"><tspan fill="rgb(0,0,0)" stroke="none">1913</tspan></tspan></tspan></text>
 <text class="TextShape"><tspan class="TextParagraph" font-family="Liberation Sans, sans-serif" font-size="353px" font-weight="400"><tspan class="TextPosition" x="11536" y="4421"><tspan fill="rgb(0,0,0)" stroke="none">1933</tspan></tspan></tspan></text>
 <text class="TextShape"><tspan class="TextParagraph" font-family="Liberation Sans, sans-serif" font-size="353px" font-weight="400"><tspan class="TextPosition" x="13697" y="4421"><tspan fill="rgb(0,0,0)" stroke="none">1961</tspan></tspan></tspan></text>
 <text class="TextShape"><tspan class="TextParagraph" font-family="Liberation Sans, sans-serif" font-size="353px" font-weight="400"><tspan class="TextPosition" x="15859" y="4421"><tspan fill="rgb(0,0,0)" stroke="none">1977</tspan></tspan></tspan></text>
 <text class="TextShape"><tspan class="TextParagraph" font-family="Liberation Sans, sans-serif" font-size="353px" font-weight="400"><tspan class="TextPosition" x="18020" y="4421"><tspan fill="rgb(0,0,0)" stroke="none">1993</tspan></tspan></tspan></text>
 <text class="TextShape"><tspan class="TextParagraph" font-family="Liberation Sans, sans-serif" font-size="353px" font-weight="400"><tspan class="TextPosition" x="20182" y="4421"><tspan fill="rgb(0,0,0)" stroke="none">2009</tspan></tspan></tspan></text>
 <text class="TextShape"><tspan class="TextParagraph" font-family="Liberation Sans, sans-serif" font-size="353px" font-weight="400"><tspan class="TextPosition" x="1436" y="9772"><tspan fill="rgb(0,0,0)" stroke="none">-25</tspan></tspan></tspan></text>
 <text class="TextShape"><tspan class="TextParagraph" font-family="Liberation Sans, sans-serif" font-size="353px" font-weight="400"><tspan class="TextPosition" x="1436" y="8613"><tspan fill="rgb(0,0,0)" stroke="none">-20</tspan></tspan></tspan></text>
 <text class="TextShape"><tspan class="TextParagraph" font-family="Liberation Sans, sans-serif" font-size="353px" font-weight="400"><tspan class="TextPosition" x="1436" y="7454"><tspan fill="rgb(0,0,0)" stroke="none">-15</tspan></tspan></tspan></text>
 <text class="TextShape"><tspan class="TextParagraph" font-family="Liberation Sans, sans-serif" font-size="353px" font-weight="400"><tspan class="TextPosition" x="1436" y="6295"><tspan fill="rgb(0,0,0)" stroke="none">-10</tspan></tspan></tspan></text>
 <text class="TextShape"><tspan class="TextParagraph" font-family="Liberation Sans, sans-serif" font-size="353px" font-weight="400"><tspan class="TextPosition" x="1630" y="5136"><tspan fill="rgb(0,0,0)" stroke="none">-5</tspan></tspan></tspan></text>
 <text class="TextShape"><tspan class="TextParagraph" font-family="Liberation Sans, sans-serif" font-size="353px" font-weight="400"><tspan class="TextPosition" x="1754" y="3977"><tspan fill="rgb(0,0,0)" stroke="none">0</tspan></tspan></tspan></text>
 <text class="TextShape"><tspan class="TextParagraph" font-family="Liberation Sans, sans-serif" font-size="353px" font-weight="400"><tspan class="TextPosition" x="1754" y="2818"><tspan fill="rgb(0,0,0)" stroke="none">5</tspan></tspan></tspan></text>
 <text class="TextShape"><tspan class="TextParagraph" font-family="Liberation Sans, sans-serif" font-size="353px" font-weight="400"><tspan class="TextPosition" x="1560" y="1659"><tspan fill="rgb(0,0,0)" stroke="none">10</tspan></tspan></tspan></text>
 <text class="TextShape"><tspan class="TextParagraph" font-family="Liberation Sans, sans-serif" font-size="459px" font-weight="400"><tspan class="TextPosition" x="7368" y="897"><tspan fill="rgb(0,0,0)" stroke="none">Democrats Succeeding Republicans</tspan></tspan></tspan></text>
 <text class="TextShape" transform="translate(828,7726) rotate(-90) translate(-828,-7726)"><tspan class="TextParagraph" font-family="Liberation Sans, sans-serif" font-size="318px" font-weight="400"><tspan class="TextPosition" x="828" y="7726"><tspan fill="rgb(0,0,0)" stroke="none">Age Difference at Inauguration</tspan></tspan></tspan></text>
</svg>