<?xml version="1.0" encoding="UTF-8"?>
<!DOCTYPE svg PUBLIC "-//W3C//DTD SVG 1.1//EN" "http://www.w3.org/Graphics/SVG/1.1/DTD/svg11.dtd">
<svg width="204mm" height="101mm" viewBox="0 0 20400 10100" version="1.1" xmlns="http://www.w3.org/2000/svg" stroke-width="28.222" stroke-linejoin="round" xml:space="preserve">
 <path fill="rgb(255,255,255)" stroke="none" d="M 10220,10135 L 0,10135 0,0 20440,0 20440,10135 10220,10135 Z"/>
 <path fill="none" stroke="rgb(179,179,179)" stroke-linejoin="round" d="M 11089,9734 L 2146,9734 2146,1518 20032,1518 20032,9734 11089,9734 Z"/>
 <path fill="none" stroke="rgb(179,179,179)" stroke-linejoin="round" d="M 20032,9733 L 2146,9733"/>
 <path fill="none" stroke="rgb(179,179,179)" stroke-linejoin="round" d="M 20032,8705 L 2146,8705"/>
 <path fill="none" stroke="rgb(179,179,179)" stroke-linejoin="round" d="M 20032,7678 L 2146,7678"/>
 <path fill="none" stroke="rgb(179,179,179)" stroke-linejoin="round" d="M 20032,6651 L 2146,6651"/>
 <path fill="none" stroke="rgb(179,179,179)" stroke-linejoin="round" d="M 20032,5624 L 2146,5624"/>
 <path fill="none" stroke="rgb(179,179,179)" stroke-linejoin="round" d="M 20032,4598 L 2146,4598"/>
 <path fill="none" stroke="rgb(179,179,179)" stroke-linejoin="round" d="M 20032,3571 L 2146,3571"/>
 <path fill="none" stroke="rgb(179,179,179)" stroke-linejoin="round" d="M 20032,2544 L 2146,2544"/>
 <path fill="none" stroke="rgb(179,179,179)" stroke-linejoin="round" d="M 20032,1517 L 2146,1517"/>
 <path fill="none" stroke="rgb(179,179,179)" stroke-linejoin="round" d="M 2146,6801 L 2146,6651"/>
 <path fill="none" stroke="rgb(179,179,179)" stroke-linejoin="round" d="M 2146,6801 L 2146,6651"/>
 <path fill="none" stroke="rgb(179,179,179)" stroke-linejoin="round" d="M 3934,6801 L 3934,6651"/>
 <path fill="none" stroke="rgb(179,179,179)" stroke-linejoin="round" d="M 3934,6801 L 3934,6651"/>
 <path fill="none" stroke="rgb(179,179,179)" stroke-linejoin="round" d="M 5723,6801 L 5723,6651"/>
 <path fill="none" stroke="rgb(179,179,179)" stroke-linejoin="round" d="M 5723,6801 L 5723,6651"/>
 <path fill="none" stroke="rgb(179,179,179)" stroke-linejoin="round" d="M 7512,6801 L 7512,6651"/>
 <path fill="none" stroke="rgb(179,179,179)" stroke-linejoin="round" d="M 7512,6801 L 7512,6651"/>
 <path fill="none" stroke="rgb(179,179,179)" stroke-linejoin="round" d="M 9300,6801 L 9300,6651"/>
 <path fill="none" stroke="rgb(179,179,179)" stroke-linejoin="round" d="M 9300,6801 L 9300,6651"/>
 <path fill="none" stroke="rgb(179,179,179)" stroke-linejoin="round" d="M 11088,6801 L 11088,6651"/>
 <path fill="none" stroke="rgb(179,179,179)" stroke-linejoin="round" d="M 11088,6801 L 11088,6651"/>
 <path fill="none" stroke="rgb(179,179,179)" stroke-linejoin="round" d="M 12877,6801 L 12877,6651"/>
 <path fill="none" stroke="rgb(179,179,179)" stroke-linejoin="round" d="M 12877,6801 L 12877,6651"/>
 <path fill="none" stroke="rgb(179,179,179)" stroke-linejoin="round" d="M 14665,6801 L 14665,6651"/>
 <path fill="none" stroke="rgb(179,179,179)" stroke-linejoin="round" d="M 14665,6801 L 14665,6651"/>
 <path fill="none" stroke="rgb(179,179,179)" stroke-linejoin="round" d="M 16454,6801 L 16454,6651"/>
 <path fill="none" stroke="rgb(179,179,179)" stroke-linejoin="round" d="M 16454,6801 L 16454,6651"/>
 <path fill="none" stroke="rgb(179,179,179)" stroke-linejoin="round" d="M 18243,6801 L 18243,6651"/>
 <path fill="none" stroke="rgb(179,179,179)" stroke-linejoin="round" d="M 18243,6801 L 18243,6651"/>
 <path fill="none" stroke="rgb(179,179,179)" stroke-linejoin="round" d="M 20032,6801 L 20032,6651"/>
 <path fill="none" stroke="rgb(179,179,179)" stroke-linejoin="round" d="M 20032,6801 L 20032,6651"/>
 <path fill="none" stroke="rgb(179,179,179)" stroke-linejoin="round" d="M 2146,6651 L 20032,6651"/>
 <path fill="none" stroke="rgb(179,179,179)" stroke-linejoin="round" d="M 1996,9733 L 2146,9733"/>
 <path fill="none" stroke="rgb(179,179,179)" stroke-linejoin="round" d="M 1996,9733 L 2146,9733"/>
 <path fill="none" stroke="rgb(179,179,179)" stroke-linejoin="round" d="M 1996,8705 L 2146,8705"/>
 <path fill="none" stroke="rgb(179,179,179)" stroke-linejoin="round" d="M 1996,8705 L 2146,8705"/>
 <path fill="none" stroke="rgb(179,179,179)" stroke-linejoin="round" d="M 1996,7678 L 2146,7678"/>
 <path fill="none" stroke="rgb(179,179,179)" stroke-linejoin="round" d="M 1996,7678 L 2146,7678"/>
 <path fill="none" stroke="rgb(179,179,179)" stroke-linejoin="round" d="M 1996,6651 L 2146,6651"/>
 <path fill="none" stroke="rgb(179,179,179)" stroke-linejoin="round" d="M 1996,6651 L 2146,6651"/>
 <path fill="none" stroke="rgb(179,179,179)" stroke-linejoin="round" d="M 1996,5624 L 2146,5624"/>
 <path fill="none" stroke="rgb(179,179,179)" stroke-linejoin="round" d="M 1996,5624 L 2146,5624"/>
 <path fill="none" stroke="rgb(179,179,179)" stroke-linejoin="round" d="M 1996,4598 L 2146,4598"/>
 <path fill="none" stroke="rgb(179,179,179)" stroke-linejoin="round" d="M 1996,4598 L 2146,4598"/>
 <path fill="none" stroke="rgb(179,179,179)" stroke-linejoin="round" d="M 1996,3571 L 2146,3571"/>
 <path fill="none" stroke="rgb(179,179,179)" stroke-linejoin="round" d="M 1996,3571 L 2146,3571"/>
 <path fill="none" stroke="rgb(179,179,179)" stroke-linejoin="round" d="M 1996,2544 L 2146,2544"/>
 <path fill="none" stroke="rgb(179,179,179)" stroke-linejoin="round" d="M 1996,2544 L 2146,2544"/>
 <path fill="none" stroke="rgb(179,179,179)" stroke-linejoin="round" d="M 1996,1517 L 2146,1517"/>
 <path fill="none" stroke="rgb(179,179,179)" stroke-linejoin="round" d="M 1996,1517 L 2146,1517"/>
 <path fill="none" stroke="rgb(179,179,179)" stroke-linejoin="round" d="M 2146,9733 L 2146,1517"/>
 <path fill="rgb(255,51,0)" stroke="none" d="M 18690,6651 L 19584,6651 19584,1917 18690,1917 18690,6651 Z"/>
 <path fill="rgb(204,0,0)" stroke="none" d="M 16901,6651 L 17796,6651 17796,5001 16901,5001 16901,6651 Z"/>
 <path fill="rgb(204,0,0)" stroke="none" d="M 15113,6651 L 16007,6651 16007,3111 15113,3111 15113,6651 Z"/>
 <path fill="rgb(204,0,0)" stroke="none" d="M 13324,6651 L 14218,6651 14218,6602 13324,6602 13324,6651 Z"/>
 <path fill="rgb(204,0,0)" stroke="none" d="M 11535,6651 L 12430,6651 12430,6109 11535,6109 11535,6651 Z"/>
 <path fill="rgb(204,0,0)" stroke="none" d="M 9747,6967 L 10641,6967 10641,6651 9747,6651 9747,6967 Z"/>
 <path fill="rgb(204,0,0)" stroke="none" d="M 7959,6859 L 8853,6859 8853,6651 7959,6651 7959,6859 Z"/>
 <path fill="rgb(204,0,0)" stroke="none" d="M 6170,6651 L 7064,6651 7064,5042 6170,5042 6170,6651 Z"/>
 <path fill="rgb(204,0,0)" stroke="none" d="M 4381,8664 L 5276,8664 5276,6651 4381,6651 4381,8664 Z"/>
 <path fill="rgb(204,0,0)" stroke="none" d="M 2593,9344 L 3487,9344 3487,6651 2593,6651 2593,9344 Z"/>
 <path fill="none" stroke="rgb(204,0,0)" stroke-linejoin="round" d="M 3040,8792 L 19137,3131"/>
 <text class="TextShape"><tspan class="TextParagraph" font-family="Liberation Sans" font-size="353px" font-weight="400"><tspan class="TextPosition" x="2669" y="7219"><tspan fill="rgb(0,0,0)" stroke="none">1861</tspan></tspan></tspan></text>
 <text class="TextShape"><tspan class="TextParagraph" font-family="Liberation Sans" font-size="353px" font-weight="400"><tspan class="TextPosition" x="4458" y="7219"><tspan fill="rgb(0,0,0)" stroke="none">1869</tspan></tspan></tspan></text>
 <text class="TextShape"><tspan class="TextParagraph" font-family="Liberation Sans" font-size="353px" font-weight="400"><tspan class="TextPosition" x="6246" y="7219"><tspan fill="rgb(0,0,0)" stroke="none">1889</tspan></tspan></tspan></text>
 <text class="TextShape"><tspan class="TextParagraph" font-family="Liberation Sans" font-size="353px" font-weight="400"><tspan class="TextPosition" x="8035" y="7219"><tspan fill="rgb(0,0,0)" stroke="none">1897</tspan></tspan></tspan></text>
 <text class="TextShape"><tspan class="TextParagraph" font-family="Liberation Sans" font-size="353px" font-weight="400"><tspan class="TextPosition" x="9824" y="7219"><tspan fill="rgb(0,0,0)" stroke="none">1921</tspan></tspan></tspan></text>
 <text class="TextShape"><tspan class="TextParagraph" font-family="Liberation Sans" font-size="353px" font-weight="400"><tspan class="TextPosition" x="11612" y="7219"><tspan fill="rgb(0,0,0)" stroke="none">1953</tspan></tspan></tspan></text>
 <text class="TextShape"><tspan class="TextParagraph" font-family="Liberation Sans" font-size="353px" font-weight="400"><tspan class="TextPosition" x="13401" y="7219"><tspan fill="rgb(0,0,0)" stroke="none">1969</tspan></tspan></tspan></text>
 <text class="TextShape"><tspan class="TextParagraph" font-family="Liberation Sans" font-size="353px" font-weight="400"><tspan class="TextPosition" x="15190" y="7219"><tspan fill="rgb(0,0,0)" stroke="none">1981</tspan></tspan></tspan></text>
 <text class="TextShape"><tspan class="TextParagraph" font-family="Liberation Sans" font-size="353px" font-weight="400"><tspan class="TextPosition" x="16978" y="7219"><tspan fill="rgb(0,0,0)" stroke="none">2001</tspan></tspan></tspan></text>
 <text class="TextShape"><tspan class="TextParagraph" font-family="Liberation Sans" font-size="353px" font-weight="400"><tspan class="TextPosition" x="18767" y="7219"><tspan fill="rgb(0,0,0)" stroke="none">2017</tspan></tspan></tspan></text>
 <text class="TextShape"><tspan class="TextParagraph" font-family="Liberation Sans" font-size="353px" font-weight="400"><tspan class="TextPosition" x="1420" y="9854"><tspan fill="rgb(0,0,0)" stroke="none">-15</tspan></tspan></tspan></text>
 <text class="TextShape"><tspan class="TextParagraph" font-family="Liberation Sans" font-size="353px" font-weight="400"><tspan class="TextPosition" x="1420" y="8826"><tspan fill="rgb(0,0,0)" stroke="none">-10</tspan></tspan></tspan></text>
 <text class="TextShape"><tspan class="TextParagraph" font-family="Liberation Sans" font-size="353px" font-weight="400"><tspan class="TextPosition" x="1605" y="7799"><tspan fill="rgb(0,0,0)" stroke="none">-5</tspan></tspan></tspan></text>
 <text class="TextShape"><tspan class="TextParagraph" font-family="Liberation Sans" font-size="353px" font-weight="400"><tspan class="TextPosition" x="1711" y="6772"><tspan fill="rgb(0,0,0)" stroke="none">0</tspan></tspan></tspan></text>
 <text class="TextShape"><tspan class="TextParagraph" font-family="Liberation Sans" font-size="353px" font-weight="400"><tspan class="TextPosition" x="1711" y="5745"><tspan fill="rgb(0,0,0)" stroke="none">5</tspan></tspan></tspan></text>
 <text class="TextShape"><tspan class="TextParagraph" font-family="Liberation Sans" font-size="353px" font-weight="400"><tspan class="TextPosition" x="1526" y="4718"><tspan fill="rgb(0,0,0)" stroke="none">10</tspan></tspan></tspan></text>
 <text class="TextShape"><tspan class="TextParagraph" font-family="Liberation Sans" font-size="353px" font-weight="400"><tspan class="TextPosition" x="1526" y="3691"><tspan fill="rgb(0,0,0)" stroke="none">15</tspan></tspan></tspan></text>
 <text class="TextShape"><tspan class="TextParagraph" font-family="Liberation Sans" font-size="353px" font-weight="400"><tspan class="TextPosition" x="1526" y="2664"><tspan fill="rgb(0,0,0)" stroke="none">20</tspan></tspan></tspan></text>
 <text class="TextShape"><tspan class="TextParagraph" font-family="Liberation Sans" font-size="353px" font-weight="400"><tspan class="TextPosition" x="1526" y="1637"><tspan fill="rgb(0,0,0)" stroke="none">25</tspan></tspan></tspan></text>
 <text class="TextShape"><tspan class="TextParagraph" font-family="Liberation Sans" font-size="459px" font-weight="400"><tspan class="TextPosition" x="6635" y="873"><tspan fill="rgb(0,0,0)" stroke="none">Republicans Succeeding Democrats</tspan></tspan></tspan></text>
 <text class="TextShape" transform="translate(837,7808) rotate(-90) translate(-837,-7808)"><tspan class="TextParagraph" font-family="Liberation Sans" font-size="318px" font-weight="400"><tspan class="TextPosition" x="837" y="7808"><tspan fill="rgb(0,0,0)" stroke="none">Age Difference at Inauguration</tspan></tspan></tspan></text>
</svg>
